<svg width="417" height="543" viewBox="0 0 417 543" fill="none" xmlns="http://www.w3.org/2000/svg">
<path d="M-52.0722 -145H155.258L138.371 -3.27013C134.619 31.1455 126.801 70.2542 114.918 114.056C138.684 102.167 154.32 94.0323 161.825 89.6521C188.093 75.2601 208.107 64.9354 221.866 58.678L352.268 -3.27013L417 194.776L272.526 224.812C246.258 229.818 207.168 233.259 155.258 235.136C190.282 262.669 218.113 287.698 238.753 310.225L336.32 416.288L167.454 543L98.0309 416.288C88.024 398.141 71.7629 362.787 49.2474 310.225C24.8557 367.793 8.59448 403.147 0.463898 416.288L-69.8969 543L-243.454 416.288L-138.381 310.225C-108.986 280.815 -80.2165 255.786 -52.0722 235.136C-80.8419 232.633 -118.68 227.002 -165.588 218.241L-311 194.776L-243.454 -3.27013L-113.052 55.8622C-99.2921 62.1196 -65.2062 81.5175 -10.7938 114.056C-22.677 61.4939 -30.1822 22.3852 -33.3093 -3.27013L-52.0722 -145Z" fill="#F8F8F8"/>
</svg>
